<svg width="392" height="182" viewBox="0 0 392 182" fill="none" xmlns="http://www.w3.org/2000/svg">
<g filter="url(#filter0_i_229_189)">
<path fill-rule="evenodd" clip-rule="evenodd" d="M0 125.58C0 140.353 10.7545 152.927 25.3487 155.218L189.064 180.911C193.626 181.627 198.293 181.28 202.699 179.897L370.984 127.075C383.49 123.15 392 111.56 392 98.4522V30C392 13.4315 378.569 0 362 0H196H30C13.4315 0 0 13.4315 0 30V125.58Z" fill="#80011F"/>
<path fill-rule="evenodd" clip-rule="evenodd" d="M0 125.58C0 140.353 10.7545 152.927 25.3487 155.218L189.064 180.911C193.626 181.627 198.293 181.28 202.699 179.897L370.984 127.075C383.49 123.15 392 111.56 392 98.4522V30C392 13.4315 378.569 0 362 0H196H30C13.4315 0 0 13.4315 0 30V125.58Z" stroke="black"/>
</g>
<defs>
<filter id="filter0_i_229_189" x="0" y="-4" width="392" height="185.274" filterUnits="userSpaceOnUse" color-interpolation-filters="sRGB">
<feFlood flood-opacity="0" result="BackgroundImageFix"/>
<feBlend mode="normal" in="SourceGraphic" in2="BackgroundImageFix" result="shape"/>
<feColorMatrix in="SourceAlpha" type="matrix" values="0 0 0 0 0 0 0 0 0 0 0 0 0 0 0 0 0 0 127 0" result="hardAlpha"/>
<feOffset dy="-4"/>
<feGaussianBlur stdDeviation="6.85"/>
<feComposite in2="hardAlpha" operator="arithmetic" k2="-1" k3="1"/>
<feColorMatrix type="matrix" values="0 0 0 0 0 0 0 0 0 0 0 0 0 0 0 0 0 0 0.25 0"/>
<feBlend mode="normal" in2="shape" result="effect1_innerShadow_229_189"/>
</filter>
</defs>
</svg>
